<svg width="1168" height="88" viewBox="0 0 1168 88" fill="none" xmlns="http://www.w3.org/2000/svg">
<g clip-path="url(#clip0_2_99)">
<path fill-rule="evenodd" clip-rule="evenodd" d="M1132.22 59.2593C1132.22 56.4774 1134.48 54.2222 1137.26 54.2222C1140.04 54.2222 1142.3 56.4774 1142.3 59.2593C1142.3 60.6125 1141.76 61.8412 1140.89 62.7462C1140.87 62.7676 1140.84 62.7908 1140.82 62.8159C1140.79 62.841 1140.77 62.8671 1140.75 62.8942C1139.84 63.7626 1138.61 64.2963 1137.26 64.2963C1134.48 64.2963 1132.22 62.0412 1132.22 59.2593ZM1141.41 64.6657C1140.26 65.549 1138.82 66.074 1137.26 66.074C1133.5 66.074 1130.44 63.0229 1130.44 59.2593C1130.44 55.4955 1133.5 52.4444 1137.26 52.4444C1141.02 52.4444 1144.07 55.4955 1144.07 59.2593C1144.07 60.8207 1143.55 62.2595 1142.67 63.4086L1145.3 66.0381C1145.64 66.3852 1145.64 66.9481 1145.3 67.2952C1144.95 67.6423 1144.39 67.6423 1144.04 67.2952L1141.41 64.6657Z" fill="#40494D"/>
</g>
<path d="M1110.5 60C1110.5 44.8122 1122.81 32.5 1138 32.5H1140C1155.19 32.5 1167.5 44.8122 1167.5 60C1167.5 75.1878 1155.19 87.5 1140 87.5H1138C1122.81 87.5 1110.5 75.1878 1110.5 60Z" stroke="#40494D"/>
<g clip-path="url(#clip1_2_99)">
<path fill-rule="evenodd" clip-rule="evenodd" d="M1131.5 59.1667C1131.5 56.037 1134.04 53.5 1137.17 53.5C1140.3 53.5 1142.83 56.037 1142.83 59.1667C1142.83 60.6891 1142.23 62.0713 1141.26 63.0895C1141.23 63.1136 1141.2 63.1397 1141.17 63.1679C1141.14 63.1961 1141.11 63.2255 1141.09 63.256C1140.07 64.2329 1138.69 64.8333 1137.17 64.8333C1134.04 64.8333 1131.5 62.2963 1131.5 59.1667ZM1141.83 65.2489C1140.54 66.2426 1138.92 66.8333 1137.17 66.8333C1132.93 66.8333 1129.5 63.4008 1129.5 59.1667C1129.5 54.9325 1132.93 51.5 1137.17 51.5C1141.4 51.5 1144.83 54.9325 1144.83 59.1667C1144.83 60.9233 1144.24 62.5419 1143.25 63.8347L1146.21 66.7929C1146.6 67.1834 1146.6 67.8166 1146.21 68.2071C1145.82 68.5976 1145.18 68.5976 1144.79 68.2071L1141.83 65.2489Z" fill="#40494D"/>
</g>
<defs>
<clipPath id="clip0_2_99">
<rect width="16" height="16" fill="white" transform="translate(1130 52)"/>
</clipPath>
<clipPath id="clip1_2_99">
<rect width="18" height="18" fill="white" transform="translate(1129 51)"/>
</clipPath>
</defs>
</svg>
